<svg width="28" height="30" viewBox="0 0 28 30" fill="none" xmlns="http://www.w3.org/2000/svg">
<path d="M3.2085 4.0376L5.63516 4.48488L6.75866 18.7395C6.8485 19.9037 7.762 20.797 8.85866 20.7933H21.5858C22.6323 20.7957 23.5202 19.9757 23.6683 18.8724L24.7755 10.7245C24.8992 9.81374 24.3053 8.96888 23.4513 8.83718C23.3767 8.826 6.02483 8.81978 6.02483 8.81978" stroke="#006D77" stroke-width="2.5" stroke-linecap="round" stroke-linejoin="round"/>
<path d="M16.4792 13.4118H19.7144" stroke="#006D77" stroke-width="2.5" stroke-linecap="round" stroke-linejoin="round"/>
<path fill-rule="evenodd" clip-rule="evenodd" d="M8.34683 25.1001C8.69799 25.1001 8.98149 25.4033 8.98149 25.776C8.98149 26.15 8.69799 26.4531 8.34683 26.4531C7.99566 26.4531 7.71216 26.15 7.71216 25.776C7.71216 25.4033 7.99566 25.1001 8.34683 25.1001Z" fill="#006D77" stroke="#006D77" stroke-width="2.5" stroke-linecap="round" stroke-linejoin="round"/>
<path fill-rule="evenodd" clip-rule="evenodd" d="M21.5072 25.1001C21.8584 25.1001 22.1431 25.4033 22.1431 25.776C22.1431 26.15 21.8584 26.4531 21.5072 26.4531C21.1561 26.4531 20.8726 26.15 20.8726 25.776C20.8726 25.4033 21.1561 25.1001 21.5072 25.1001Z" fill="#006D77" stroke="#006D77" stroke-width="2.5" stroke-linecap="round" stroke-linejoin="round"/>
</svg>
