<svg width="197" height="54" viewBox="0 0 197 54" fill="none" xmlns="http://www.w3.org/2000/svg">
<path d="M6.26501 50.9197V17.4531L0.0717505 49.4473C-0.28281 51.2758 1.02707 53.0072 2.88115 53.1626L3.06839 53.1785L7.07293 53.5139C6.5638 52.7761 6.26501 51.883 6.26501 50.9197Z" fill="#00838F"/>
<path d="M43.0619 36.4549C44.4499 35.1282 49.4361 29.8903 49.1986 23.2995C49.1978 23.3042 46.9525 34.8095 34.3883 39.2921C26.3203 42.1701 24.2646 48.1586 24.1666 51.5161C22.7532 37.3656 34.4537 30.3038 34.4537 30.3038C25.8032 33.8024 21.7978 41.0084 19.6259 47.4733C19.1382 44.0823 19.0028 40.2323 19.8737 36.7377C22.0767 27.9 30.7599 24.7225 38.11 23.65L35.7165 17.4584C35.3437 16.4959 34.523 15.7788 33.5199 15.5414L31.0666 14.9605L31.6467 18.883C31.9447 19.1005 32.1383 19.4519 32.1383 19.8487C32.1383 20.5092 31.6036 21.0446 30.9439 21.0446C30.2842 21.0446 29.7496 20.5092 29.7496 19.8487C29.7496 19.3642 30.038 18.9483 30.4507 18.7603L29.846 14.6705L17.4953 11.744L18.6036 19.2368C18.7104 19.416 18.7725 19.6248 18.7725 19.8487C18.7725 20.5092 18.2379 21.0446 17.5782 21.0446C16.9185 21.0446 16.383 20.5092 16.383 19.8487C16.383 19.2694 16.7958 18.7858 17.3423 18.6766L16.2747 11.454L11.5522 10.3353C9.58821 9.86918 7.70386 11.3615 7.70386 13.3829V50.8684C7.70386 52.732 9.3189 54.1821 11.1682 53.9813L44.2316 50.3959C46.2761 50.1736 47.5541 48.0717 46.8115 46.1523L43.0619 36.4549Z" fill="#00838F"/>
<path d="M31.3144 19.9337L29.2596 6.03489C28.807 2.97291 26.4159 0.561105 23.3603 0.0862329C18.6586 -0.645995 14.5951 3.39281 15.2915 8.10488L17.0659 20.105C17.1081 20.391 17.3535 20.6029 17.6427 20.6029C17.9981 20.6029 18.2706 20.2866 18.2188 19.9337L16.4444 7.93437C16.1894 6.20938 16.6739 4.53537 17.8085 3.21912C18.9327 1.91481 20.5533 1.16665 22.2544 1.16665C22.5612 1.16665 22.8735 1.19055 23.1811 1.23836C25.7466 1.63833 27.7266 3.63423 28.1075 6.20619L30.1623 20.105C30.2045 20.391 30.45 20.6029 30.7384 20.6029C31.0937 20.6029 31.367 20.2866 31.3144 19.9337Z" fill="#006973"/>
<path d="M63.0565 22.5186C63.9003 22.5186 64.7192 22.6592 65.5133 22.9404C66.3239 23.2217 67.0519 23.6353 67.6971 24.1812C68.3423 24.7272 68.8551 25.3889 69.2356 26.1665C69.6327 26.944 69.8312 27.8208 69.8312 28.7969C69.8312 30.0708 69.5334 31.1709 68.9378 32.0974C68.3423 33.0073 67.5647 33.7021 66.6052 34.1819C65.6456 34.6617 64.6282 34.9016 63.5529 34.9016C62.9242 34.9016 62.3617 34.8436 61.8654 34.7278C61.3691 34.5955 60.9389 34.4301 60.575 34.2315V39.145H55.9345V22.5186H63.0565ZM60.575 26.8613V30.7077C60.8562 30.807 61.154 30.8897 61.4683 30.9559C61.7992 31.022 62.1466 31.0551 62.5106 31.0551C63.2385 31.0551 63.8424 30.8318 64.3221 30.3851C64.8185 29.9219 65.0666 29.3925 65.0666 28.7969C65.0666 28.1186 64.8185 27.6306 64.3221 27.3328C63.8424 27.0185 63.2385 26.8613 62.5106 26.8613H60.575ZM77.1518 26.1168C77.8136 26.1168 78.4588 26.2657 79.0874 26.5635C79.7326 26.8448 80.262 27.2087 80.6756 27.6554V26.4891H84.9439V39.145H80.6756V37.0357C80.3613 37.7305 79.8815 38.3178 79.2363 38.7976C78.5911 39.2774 77.8136 39.5173 76.9037 39.5173C75.9607 39.5173 75.0756 39.2774 74.2484 38.7976C73.4212 38.3178 72.7429 37.5816 72.2135 36.589C71.7006 35.5798 71.4442 34.3142 71.4442 32.7922C71.4442 31.3695 71.7006 30.1618 72.2135 29.1691C72.7429 28.1765 73.4377 27.4238 74.298 26.9109C75.1748 26.3815 76.1261 26.1168 77.1518 26.1168ZM78.0452 30.2858C77.4331 30.2858 76.9202 30.534 76.5066 31.0303C76.1096 31.5266 75.911 32.1139 75.911 32.7922C75.911 33.4705 76.1178 34.0413 76.5314 34.5045C76.945 34.9677 77.491 35.1993 78.1692 35.1993C78.5332 35.1993 78.9054 35.1083 79.2859 34.9264C79.6665 34.7278 79.9891 34.4383 80.2538 34.0578C80.535 33.6608 80.6756 33.1562 80.6756 32.5441V31.3281C80.3117 31.0303 79.8981 30.7822 79.4348 30.5836C78.9882 30.3851 78.5249 30.2858 78.0452 30.2858ZM92.8353 26.1168C93.6625 26.1168 94.4235 26.2409 95.1183 26.4891C95.8297 26.7207 96.4004 27.0433 96.8306 27.4569V30.807C96.4004 30.5423 95.9124 30.2941 95.3665 30.0625C94.8205 29.8144 94.2332 29.6903 93.6046 29.6903C93.2075 29.6903 92.8518 29.773 92.5375 29.9384C92.2397 30.0873 92.0908 30.3272 92.0908 30.6581C92.0908 30.8897 92.1818 31.0634 92.3638 31.1792C92.5458 31.295 92.9014 31.4191 93.4308 31.5514L94.2001 31.75C96.4004 32.3125 97.5006 33.4953 97.5006 35.2986C97.5006 36.1258 97.2524 36.862 96.7561 37.5072C96.2764 38.1359 95.6394 38.6322 94.8453 38.9961C94.0678 39.3435 93.224 39.5173 92.3141 39.5173C91.3711 39.5173 90.4943 39.3849 89.6837 39.1202C88.873 38.839 88.1782 38.4998 87.5992 38.1028V34.7775C88.1948 35.1414 88.8648 35.4475 89.6092 35.6957C90.3703 35.9438 91.0485 36.0679 91.6441 36.0679C92.1239 36.0679 92.4713 36.01 92.6864 35.8942C92.918 35.7784 93.0338 35.5716 93.0338 35.2738C93.0338 35.0422 92.9014 34.8685 92.6367 34.7527C92.372 34.6203 91.9915 34.4714 91.4952 34.306L90.2296 33.9089C89.3032 33.6277 88.6249 33.1893 88.1948 32.5937C87.7646 31.9816 87.5495 31.2371 87.5495 30.3603C87.5495 29.4835 87.7812 28.7307 88.2444 28.1021C88.7076 27.4734 89.3363 26.9854 90.1304 26.638C90.941 26.2905 91.8426 26.1168 92.8353 26.1168ZM104.573 26.1168C105.235 26.1168 105.88 26.2657 106.509 26.5635C107.154 26.8448 107.683 27.2087 108.097 27.6554V26.4891H112.365V39.145H108.097V37.0357C107.783 37.7305 107.303 38.3178 106.658 38.7976C106.012 39.2774 105.235 39.5173 104.325 39.5173C103.382 39.5173 102.497 39.2774 101.67 38.7976C100.842 38.3178 100.164 37.5816 99.6347 36.589C99.1219 35.5798 98.8655 34.3142 98.8655 32.7922C98.8655 31.3695 99.1219 30.1618 99.6347 29.1691C100.164 28.1765 100.859 27.4238 101.719 26.9109C102.596 26.3815 103.547 26.1168 104.573 26.1168ZM105.466 30.2858C104.854 30.2858 104.341 30.534 103.928 31.0303C103.531 31.5266 103.332 32.1139 103.332 32.7922C103.332 33.4705 103.539 34.0413 103.953 34.5045C104.366 34.9677 104.912 35.1993 105.59 35.1993C105.954 35.1993 106.327 35.1083 106.707 34.9264C107.088 34.7278 107.41 34.4383 107.675 34.0578C107.956 33.6608 108.097 33.1562 108.097 32.5441V31.3281C107.733 31.0303 107.319 30.7822 106.856 30.5836C106.409 30.3851 105.946 30.2858 105.466 30.2858ZM124.475 31.1792C124.227 31.0469 123.962 30.9476 123.681 30.8814C123.416 30.7987 123.102 30.7573 122.738 30.7573C122.159 30.7573 121.646 30.9311 121.199 31.2785C120.753 31.6259 120.389 32.0808 120.108 32.6433V39.145H115.839V26.4891H120.108V28.7473C120.505 28.069 120.943 27.4817 121.423 26.9854C121.919 26.4891 122.564 26.2409 123.358 26.2409C123.789 26.2409 124.161 26.3154 124.475 26.4642V31.1792ZM134.749 26.1168C135.692 26.1168 136.577 26.3567 137.404 26.8365C138.248 27.3162 138.926 28.0524 139.439 29.0451C139.952 30.0377 140.208 31.3033 140.208 32.8419C140.208 34.2646 139.944 35.4723 139.414 36.4649C138.901 37.4576 138.206 38.2186 137.33 38.748C136.469 39.2608 135.526 39.5173 134.501 39.5173C133.839 39.5173 133.185 39.3766 132.54 39.0954C131.912 38.7976 131.39 38.4254 130.977 37.9787V45.1008H126.709V26.4891H130.977V28.5984C131.291 27.9036 131.771 27.3162 132.416 26.8365C133.061 26.3567 133.839 26.1168 134.749 26.1168ZM133.483 30.4347C133.136 30.4347 132.764 30.534 132.367 30.7325C131.986 30.9145 131.655 31.204 131.374 31.6011C131.109 31.9816 130.977 32.4779 130.977 33.09V34.306C131.357 34.6038 131.771 34.8519 132.218 35.0504C132.681 35.249 133.144 35.3482 133.607 35.3482C134.236 35.3482 134.749 35.1001 135.146 34.6038C135.543 34.0909 135.741 33.5036 135.741 32.8419C135.741 32.1636 135.535 31.5928 135.121 31.1296C134.707 30.6664 134.162 30.4347 133.483 30.4347ZM148.67 26.1168C149.862 26.1168 150.92 26.3815 151.847 26.9109C152.773 27.4403 153.493 28.1848 154.006 29.1443C154.535 30.0873 154.8 31.2123 154.8 32.5193V33.9834H146.189C146.371 34.5955 146.735 35.0504 147.281 35.3482C147.827 35.646 148.455 35.7949 149.167 35.7949C150.126 35.7949 150.953 35.6626 151.648 35.3979C152.36 35.1166 152.889 34.8767 153.236 34.6782V38.3261C152.806 38.5908 152.211 38.8555 151.45 39.1202C150.705 39.3849 149.862 39.5173 148.919 39.5173C148.025 39.5173 147.157 39.3684 146.313 39.0706C145.486 38.7728 144.741 38.3426 144.079 37.7802C143.418 37.2177 142.897 36.5394 142.516 35.7453C142.136 34.9346 141.945 34.0247 141.945 33.0156C141.945 31.7582 142.235 30.6085 142.814 29.5662C143.409 28.5239 144.212 27.6885 145.221 27.0598C146.247 26.4312 147.397 26.1168 148.67 26.1168ZM148.546 29.6406C148 29.6406 147.529 29.7895 147.132 30.0873C146.735 30.3686 146.445 30.807 146.263 31.4026H150.755C150.755 30.807 150.523 30.3686 150.06 30.0873C149.613 29.7895 149.109 29.6406 148.546 29.6406ZM169.788 21.2778V39.145H165.52V37.0357C165.206 37.7305 164.726 38.3178 164.081 38.7976C163.436 39.2774 162.658 39.5173 161.748 39.5173C160.805 39.5173 159.92 39.2774 159.093 38.7976C158.266 38.3178 157.587 37.5816 157.058 36.589C156.545 35.5798 156.289 34.3142 156.289 32.7922C156.289 31.3695 156.545 30.1618 157.058 29.1691C157.587 28.1765 158.282 27.4238 159.143 26.9109C160.019 26.3815 160.971 26.1168 161.996 26.1168C162.658 26.1168 163.303 26.2657 163.932 26.5635C164.577 26.8448 165.107 27.2087 165.52 27.6554V21.2778H169.788ZM162.89 30.2858C162.278 30.2858 161.765 30.534 161.351 31.0303C160.954 31.5266 160.756 32.1139 160.756 32.7922C160.756 33.4705 160.962 34.0413 161.376 34.5045C161.79 34.9677 162.335 35.1993 163.014 35.1993C163.378 35.1993 163.75 35.1083 164.13 34.9264C164.511 34.7278 164.834 34.4383 165.098 34.0578C165.38 33.6608 165.52 33.1562 165.52 32.5441V31.3281C165.156 31.0303 164.743 30.7822 164.279 30.5836C163.833 30.3851 163.369 30.2858 162.89 30.2858ZM176.563 19.3918C177.043 19.3918 177.481 19.5076 177.878 19.7392C178.292 19.9708 178.623 20.2852 178.871 20.6822C179.119 21.0627 179.243 21.4929 179.243 21.9726C179.243 22.4358 179.119 22.866 178.871 23.263C178.623 23.6601 178.292 23.9744 177.878 24.206C177.481 24.4376 177.043 24.5534 176.563 24.5534C175.852 24.5534 175.231 24.3053 174.702 23.809C174.173 23.2961 173.908 22.684 173.908 21.9726C173.908 21.2447 174.173 20.6326 174.702 20.1363C175.231 19.64 175.852 19.3918 176.563 19.3918ZM178.97 26.4891V39.145H174.702V29.9632H172.642V26.4891H178.97ZM187.308 26.1168C187.97 26.1168 188.615 26.2657 189.244 26.5635C189.889 26.8448 190.418 27.2087 190.832 27.6554V26.4891H195.1V39.145H190.832V37.0357C190.518 37.7305 190.038 38.3178 189.393 38.7976C188.748 39.2774 187.97 39.5173 187.06 39.5173C186.117 39.5173 185.232 39.2774 184.405 38.7976C183.578 38.3178 182.899 37.5816 182.37 36.589C181.857 35.5798 181.601 34.3142 181.601 32.7922C181.601 31.3695 181.857 30.1618 182.37 29.1691C182.899 28.1765 183.594 27.4238 184.454 26.9109C185.331 26.3815 186.283 26.1168 187.308 26.1168ZM188.202 30.2858C187.59 30.2858 187.077 30.534 186.663 31.0303C186.266 31.5266 186.067 32.1139 186.067 32.7922C186.067 33.4705 186.274 34.0413 186.688 34.5045C187.101 34.9677 187.647 35.1993 188.326 35.1993C188.69 35.1993 189.062 35.1083 189.442 34.9264C189.823 34.7278 190.146 34.4383 190.41 34.0578C190.691 33.6608 190.832 33.1562 190.832 32.5441V31.3281C190.468 31.0303 190.055 30.7822 189.591 30.5836C189.145 30.3851 188.681 30.2858 188.202 30.2858Z" fill="#00838F"/>
</svg>
