<svg width="24" height="27" viewBox="0 0 24 27" fill="none" xmlns="http://www.w3.org/2000/svg">
<path d="M19.7695 12.8613C19.039 11.9192 18.7071 11.1028 18.7071 9.71575V9.24415C18.7071 7.43669 18.3304 6.27214 17.5115 5.10758C16.2493 3.29902 14.1244 2.20898 12.0442 2.20898H11.9558C9.91935 2.20898 7.86106 3.24896 6.577 4.98412C5.71333 6.17203 5.29293 7.38664 5.29293 9.24415V9.71575C5.29293 11.1028 4.98284 11.9192 4.23049 12.8613C3.67691 13.5553 3.5 14.4474 3.5 15.4128C3.5 16.3794 3.78723 17.2948 4.36367 18.0389C5.11602 18.931 6.17846 19.5005 7.26375 19.5995C8.83505 19.7974 10.4063 19.872 12.0005 19.872C13.5937 19.872 15.165 19.7474 16.7372 19.5995C17.8215 19.5005 18.884 18.931 19.6363 18.0389C20.2118 17.2948 20.5 16.3794 20.5 15.4128C20.5 14.4474 20.3231 13.5553 19.7695 12.8613" fill="#006D77"/>
<path opacity="0.4" d="M14.0088 21.2359C13.5088 21.118 10.4627 21.118 9.96275 21.2359C9.53539 21.3449 9.07324 21.5985 9.07324 22.1546C9.09809 22.6852 9.37935 23.1535 9.76895 23.4504L9.76795 23.4515C10.2718 23.8853 10.8632 24.1612 11.4824 24.2602C11.8123 24.3102 12.1482 24.308 12.4901 24.2602C13.1083 24.1612 13.6997 23.8853 14.2036 23.4515L14.2026 23.4504C14.5922 23.1535 14.8734 22.6852 14.8983 22.1546C14.8983 21.5985 14.4361 21.3449 14.0088 21.2359" fill="#006D77"/>
</svg>
