<svg width="19" height="17" viewBox="0 0 19 17" fill="none" xmlns="http://www.w3.org/2000/svg">
<path fill-rule="evenodd" clip-rule="evenodd" d="M10.5429 1.59736L12.2688 4.81861C12.4379 5.13484 12.7644 5.35412 13.1431 5.40487L17.0039 5.92407C17.9578 6.05274 18.3374 7.13283 17.6471 7.75171L14.8552 10.258C14.5808 10.5045 14.4559 10.8588 14.5208 11.2067L15.1797 14.7451C15.342 15.6204 14.3448 16.2883 13.4922 15.8742L10.0414 14.2024C9.70307 14.0384 9.29791 14.0384 8.95863 14.2024L5.50784 15.8742C4.65522 16.2883 3.65804 15.6204 3.82128 14.7451L4.47919 11.2067C4.54409 10.8588 4.4192 10.5045 4.14483 10.258L1.35292 7.75171C0.662564 7.13283 1.04216 6.05274 1.99607 5.92407L5.85695 5.40487C6.23556 5.35412 6.56304 5.13484 6.73219 4.81861L8.45709 1.59736C8.88389 0.800881 10.1161 0.800881 10.5429 1.59736Z" stroke="#757575" stroke-width="1.5" stroke-linecap="round" stroke-linejoin="round"/>
</svg>
