<svg width="25" height="27" viewBox="0 0 25 27" fill="none" xmlns="http://www.w3.org/2000/svg">
<g opacity="0.8">
<path d="M12.1122 5.67969C11.2566 5.67969 10.4203 5.95728 9.7089 6.47737C8.99752 6.99745 8.44307 7.73667 8.11566 8.60154C7.78825 9.46641 7.70259 10.4181 7.8695 11.3362C8.03641 12.2544 8.4484 13.0977 9.05338 13.7597C9.65835 14.4216 10.4291 14.8724 11.2683 15.055C12.1074 15.2377 12.9772 15.1439 13.7676 14.7857C14.558 14.4274 15.2336 13.8208 15.709 13.0424C16.1843 12.2641 16.438 11.349 16.438 10.4128C16.438 9.15752 15.9822 7.95363 15.171 7.06599C14.3597 6.17836 13.2595 5.67969 12.1122 5.67969Z" fill="#006D77"/>
<path d="M12.1122 0C9.71662 0 7.37486 0.777263 5.38302 2.2335C3.39118 3.68973 1.83873 5.75954 0.92199 8.18117C0.005248 10.6028 -0.234614 13.2675 0.232738 15.8383C0.700089 18.4091 1.85366 20.7705 3.54758 22.6239C5.2415 24.4774 7.39968 25.7396 9.74922 26.2509C12.0987 26.7623 14.5341 26.4998 16.7473 25.4968C18.9605 24.4937 20.8522 22.7951 22.1831 20.6156C23.514 18.4362 24.2244 15.8739 24.2244 13.2528C24.2207 9.73916 22.9434 6.37059 20.6727 3.88608C18.4021 1.40157 15.3234 0.00400871 12.1122 0ZM19.0265 21.7024C19.0093 20.4607 18.5469 19.2762 17.7391 18.4039C16.9312 17.5317 15.8426 17.0416 14.7077 17.0393H9.51672C8.38179 17.0416 7.29313 17.5317 6.48529 18.4039C5.67745 19.2762 5.2151 20.4607 5.19786 21.7024C3.62896 20.1696 2.52257 18.1515 2.02519 15.9153C1.52782 13.6792 1.66292 11.3305 2.41261 9.18026C3.1623 7.03001 4.49122 5.17963 6.22339 3.87414C7.95556 2.56864 10.0093 1.86961 12.1126 1.86961C14.2159 1.86961 16.2697 2.56864 18.0018 3.87414C19.734 5.17963 21.0629 7.03001 21.8126 9.18026C22.5623 11.3305 22.6974 13.6792 22.2 15.9153C21.7027 18.1515 20.5963 20.1696 19.0274 21.7024H19.0265Z" fill="#006D77"/>
</g>
</svg>
